# xmcd
#
# Track frame offsets: 
#        150
#        17667
#        36087
#        57262
#        64707
#        82330
#        93972
#        111387
#        127215
#        142177
#        154875
#        164500
#        180580
#        190755
#        199787
#        214992
#
# Disc length: 3017 seconds
#
# Revision: 0
# Processed by: cddbd v1.5.1PL0 Copyright (c) Steve Scherf et al.
# Submitted via: ExactAudioCopy v0.95a2
#
DISCID=f10bc710
DTITLE=John Dee Holeman - Bull City After Dark
DYEAR=1991
DGENRE=Blues
TTITLE0=Rock Me
TTITLE1=Dig Myself A Hole
TTITLE2=Letter Blues
TTITLE3=Bull City After Dark
TTITLE4=Three O'Clock
TTITLE5=Someday Baby
TTITLE6=Country Girl
TTITLE7=Black Rat Swing
TTITLE8=Chapel Hill Boogie
TTITLE9=Bald Headed Woman
TTITLE10=Hambone
TTITLE11=Ford Machine - Mamie
TTITLE12=Mojo Hand
TTITLE13=Eating With Sticks
TTITLE14=You've Got To Lose!
TTITLE15=We Will Understand
EXTD=
EXTT0=
EXTT1=
EXTT2=
EXTT3=
EXTT4=
EXTT5=
EXTT6=
EXTT7=
EXTT8=
EXTT9=
EXTT10=
EXTT11=
EXTT12=
EXTT13=
EXTT14=
EXTT15=
PLAYORDER=
